<svg width="73" height="11" viewBox="0 0 73 11" fill="none" xmlns="http://www.w3.org/2000/svg">
<g id="Group 2">
<path id="Vector" d="M70.1862 9.71521L67.3571 6.11177C67.3319 6.07969 67.3325 6.0337 67.3587 6.00216L69.7991 3.0623C69.8777 2.96766 69.8103 2.82489 69.6873 2.82489H67.8704C67.8094 2.82489 67.7511 2.85109 67.711 2.89708L65.2075 5.76314C65.1947 5.77811 65.1701 5.76902 65.1701 5.74924V0.213885C65.1701 0.0957137 65.0744 0 64.9562 0H63.4365C63.3184 0 63.2227 0.0957137 63.2227 0.213885V9.78793C63.2227 9.9061 63.3184 10.0018 63.4365 10.0018H64.9562C65.0744 10.0018 65.1701 9.9061 65.1701 9.78793V8.3057C65.1701 8.27736 65.1808 8.25009 65.2 8.22924L65.939 7.43358C65.9481 7.42396 65.9631 7.42449 65.9711 7.43465L68.0009 9.92267C68.0415 9.9724 68.1025 10.0013 68.1666 10.0013H70.0472C70.1948 10.0013 70.2777 9.83124 70.1862 9.71521ZM69.6488 2.99172C69.6488 2.99172 69.6467 2.98744 69.6456 2.9853H69.6542L69.6488 2.99172Z" fill="#D3DDC6"/>
<path id="Vector_2" d="M5.80699 0.0126038H0.219233C0.0983873 0.0126038 0 0.110991 0 0.231836V9.77112C0 9.89197 0.0983873 9.99036 0.219233 9.99036H1.88219C1.99823 9.99036 2.09608 9.89732 2.09608 9.78717V6.2741C2.09608 6.23613 2.12656 6.21528 2.1549 6.21528H5.55568C5.67652 6.21528 5.77491 6.11689 5.77491 5.99605V4.41864C5.77491 4.2978 5.67652 4.19941 5.55568 4.19941H2.1549C2.118 4.19941 2.09608 4.16947 2.09608 4.14059V2.08729C2.09608 2.0504 2.12602 2.02847 2.1549 2.02847H5.80699C5.92784 2.02847 6.02623 1.93009 6.02623 1.80924V0.231836C6.02623 0.110991 5.92784 0.0126038 5.80699 0.0126038Z" fill="#D3DDC6"/>
<path id="Vector_3" d="M10.953 2.69197C10.1381 2.73314 9.47234 3.09407 9.09323 3.69188C9.08147 3.71006 9.05366 3.70258 9.05366 3.68065V3.039C9.05366 2.91815 8.95527 2.81976 8.83443 2.81976H7.2998C7.17895 2.81976 7.08057 2.91815 7.08057 3.039V9.77638C7.08057 9.89723 7.17949 9.99561 7.2998 9.99561H8.83443C8.95527 9.99561 9.05366 9.89723 9.05366 9.77638V6.56276C9.05366 6.02323 9.21514 5.5976 9.53383 5.29709C9.87231 4.97733 10.3899 4.81317 10.9514 4.84633C11.0102 4.85114 11.0695 4.82975 11.1139 4.78858C11.1578 4.74794 11.1818 4.69233 11.1818 4.63244V2.89997C11.1818 2.83367 11.1524 2.77057 11.1038 2.731C11.061 2.69625 11.0064 2.68234 10.953 2.69143V2.69197Z" fill="#D3DDC6"/>
<path id="Vector_4" d="M19.2005 2.80924H17.6551C17.5343 2.80871 17.4359 2.9071 17.4359 3.02794V3.45411C17.4359 3.47336 17.4129 3.48245 17.3995 3.46855C16.86 2.9103 16.1125 2.61621 15.2275 2.61621C14.2977 2.61621 13.4245 3.00388 12.7679 3.7081C12.1059 4.4182 11.7412 5.3732 11.7412 6.39717C11.7412 7.42115 12.1059 8.37508 12.7689 9.08358C13.4256 9.78566 14.3009 10.1723 15.2329 10.1723C16.1649 10.1723 16.8648 9.8819 17.3995 9.33061C17.4129 9.31671 17.4359 9.3258 17.4359 9.34505V9.77122C17.4359 9.89153 17.5343 9.99045 17.6551 9.99045H19.1898C19.3106 9.99045 19.409 9.89206 19.409 9.77122V3.03275C19.409 2.91939 19.3213 2.82475 19.2005 2.80871V2.80924ZM17.4413 6.40199C17.4413 7.51954 16.6718 8.30022 15.5698 8.30022C14.4677 8.30022 13.7143 7.51954 13.7143 6.40199C13.7143 5.28443 14.4773 4.50375 15.5698 4.50375C16.6622 4.50375 17.4413 5.28443 17.4413 6.40199Z" fill="#D3DDC6"/>
<path id="Vector_5" d="M28.2959 2.6141C27.4137 2.6141 26.6993 2.93493 26.2245 3.5429C26.2159 3.55413 26.1988 3.55359 26.1908 3.54183C25.7689 2.93813 25.116 2.61944 24.2963 2.61944C23.529 2.61944 22.9007 2.87183 22.467 3.35361C22.4537 3.36804 22.4301 3.35949 22.4301 3.3397V3.03117C22.4301 2.91033 22.3317 2.81194 22.2109 2.81194H20.6763C20.5554 2.81194 20.457 2.91033 20.457 3.03117V9.76857C20.457 9.88888 20.5554 9.98781 20.6763 9.98781H22.2109C22.3317 9.98781 22.4301 9.88942 22.4301 9.76857V5.96141C22.4301 5.02031 22.8937 4.45886 23.6707 4.45886C24.3674 4.45886 24.7668 4.91497 24.7668 5.71009V9.76857C24.7668 9.88888 24.8652 9.98781 24.9861 9.98781H26.5207C26.6415 9.98781 26.7399 9.88942 26.7399 9.76857V5.96141C26.7399 4.99251 27.1746 4.45886 27.9644 4.45886C28.6611 4.45886 29.0606 4.91497 29.0606 5.71009V9.76857C29.0606 9.88888 29.159 9.98781 29.2798 9.98781H30.8144C30.9353 9.98781 31.0337 9.88942 31.0337 9.76857V5.58711C31.0337 3.78673 29.9589 2.61944 28.2959 2.6141Z" fill="#D3DDC6"/>
<path id="Vector_6" d="M35.589 2.6141C33.3983 2.6141 31.8086 4.2038 31.8086 6.39452C31.8086 8.58524 33.4224 10.1749 35.7334 10.1749C36.9012 10.1749 37.8835 9.77176 38.5733 9.0098C38.6139 8.96488 38.6337 8.90393 38.6267 8.84243C38.6198 8.77987 38.5856 8.72266 38.5332 8.68683L37.3627 7.88476C37.2798 7.82648 37.1686 7.83343 37.091 7.90187C36.7568 8.2088 36.2841 8.3783 35.7601 8.3783C34.811 8.3783 34.1533 7.97727 33.8983 7.24685C33.8934 7.23295 33.9041 7.21798 33.9186 7.21798H38.9518C39.054 7.21798 39.1475 7.1367 39.1646 7.03297C39.2021 6.80411 39.2192 6.60092 39.2192 6.39452C39.2192 4.23909 37.6584 2.6141 35.5885 2.6141H35.589ZM37.2044 5.66731H33.8886C33.8742 5.66731 33.864 5.65341 33.8678 5.64004C33.887 5.5748 33.9084 5.5085 33.9357 5.44647C34.2095 4.77541 34.7982 4.40539 35.5938 4.40539C36.3895 4.40539 37.006 4.86845 37.2247 5.6395C37.2284 5.65341 37.2183 5.66731 37.2039 5.66731H37.2044Z" fill="#D3DDC6"/>
<path id="Vector_7" d="M49.7254 2.81562H48.0212C47.9229 2.81562 47.8362 2.88139 47.81 2.97549L46.7406 6.84682C46.7347 6.86768 46.7059 6.86768 46.6994 6.84682L45.553 2.97015C45.5279 2.87871 45.4434 2.81455 45.3471 2.81455H43.8393C43.743 2.81455 43.6585 2.87871 43.6339 2.96801L42.4875 6.83613C42.4816 6.85645 42.4522 6.85645 42.4463 6.83613L41.3769 2.97496C41.3518 2.88192 41.263 2.81401 41.1657 2.81401H39.4706C39.4182 2.81401 39.3696 2.83807 39.3375 2.88032C39.3043 2.92416 39.2931 2.97977 39.3086 3.03592L41.4678 9.83427C41.4935 9.92891 41.578 9.99468 41.6737 9.99468H43.1976C43.2928 9.99468 43.3778 9.92838 43.4029 9.83641L44.5413 6.09181C44.5552 6.04529 44.621 6.04529 44.6354 6.09181L45.7738 9.83587C45.8017 9.92784 45.8877 9.99468 45.9792 9.99468H47.5031C47.5983 9.99468 47.6833 9.92838 47.7079 9.83694L49.8682 3.04073L49.8692 3.03752C49.8831 2.98672 49.8735 2.93218 49.8436 2.8878C49.8152 2.84609 49.7724 2.81882 49.7259 2.81348L49.7254 2.81562Z" fill="#D3DDC6"/>
<path id="Vector_8" d="M53.6349 2.6199C51.5153 2.6199 49.8545 4.28072 49.8545 6.40032C49.8545 7.42804 50.2448 8.38357 50.9528 9.08993C51.6581 9.79361 52.6067 10.1807 53.6242 10.1807H53.6349C55.7636 10.1807 57.4314 8.52046 57.4314 6.40032C57.4314 4.28019 55.7636 2.6199 53.6349 2.6199ZM55.4636 6.40032C55.4636 7.47563 54.6947 8.25578 53.6349 8.25578C52.5847 8.25578 51.8222 7.47563 51.8222 6.40032C51.8222 5.32502 52.5847 4.54487 53.6349 4.54487C54.6851 4.54487 55.4636 5.32502 55.4636 6.40032Z" fill="#D3DDC6"/>
<path id="Vector_9" d="M62.137 2.69197C61.3221 2.73314 60.6564 3.09407 60.2773 3.69188C60.2655 3.71006 60.2377 3.70258 60.2377 3.68065V3.039C60.2377 2.91815 60.1394 2.81976 60.0185 2.81976H58.4839C58.363 2.81976 58.2646 2.91815 58.2646 3.039V9.77639C58.2646 9.89617 58.3673 10.001 58.4839 10.001H60.0185C60.1394 10.001 60.2377 9.90044 60.2377 9.77639V6.56276C60.2377 6.02323 60.3992 5.5976 60.7179 5.29709C61.0564 4.97787 61.5735 4.81371 62.1354 4.84633C62.1948 4.85061 62.2536 4.82975 62.298 4.78858C62.3418 4.74794 62.3659 4.69233 62.3659 4.63244V2.89997C62.3659 2.83367 62.3365 2.77057 62.2878 2.731C62.2451 2.69625 62.1905 2.68234 62.137 2.69143V2.69197Z" fill="#D3DDC6"/>
<path id="Vector_10" d="M71.7326 7.65327C71.0337 7.65327 70.4653 8.22167 70.4653 8.92054C70.4653 9.61941 71.0337 10.1878 71.7326 10.1878C72.4315 10.1878 72.9999 9.61941 72.9999 8.92054C72.9999 8.22167 72.4315 7.65327 71.7326 7.65327Z" fill="#D3DDC6"/>
</g>
</svg>
